PathFileType	4	(X/Y/Z)	39_2_105_p1_0-734_filt_butterworth.trc
DataRate	CameraRate	NumFrames	NumMarkers	Units	OrigDataRate	OrigDataStartFrame	OrigNumFrames
47.0	47.0	7	27	m	47.0	550	734
Frame#	Time	RHip			RKnee			RAnkle			RBigToe			RSmallToe			RHeel			LHip			LKnee			LAnkle			LBigToe			LSmallToe			LHeel			Neck			Head			Nose			RShoulder			RElbow			RWrist			RThumb			RIndex			RPinky			LShoulder			LElbow			LWrist			LThumb			LIndex			LPinky			
		X1	Y1	Z1	X2	Y2	Z2	X3	Y3	Z3	X4	Y4	Z4	X5	Y5	Z5	X6	Y6	Z6	X7	Y7	Z7	X8	Y8	Z8	X9	Y9	Z9	X10	Y10	Z10	X11	Y11	Z11	X12	Y12	Z12	X13	Y13	Z13	X14	Y14	Z14	X15	Y15	Z15	X16	Y16	Z16	X17	Y17	Z17	X18	Y18	Z18	X19	Y19	Z19	X20	Y20	Z20	X21	Y21	Z21	X22	Y22	Z22	X23	Y23	Z23	X24	Y24	Z24	X25	Y25	Z25	X26	Y26	Z26	X27	Y27	Z27	
550	11.702127659574469	0.30971573039616684	0.715737709993287	0.4811965051588999	0.27174252727991755	0.7918404340496582	0.921231853754682	0.2180628034239613	0.9164440757000797	1.34190674970072	0.22262033885088295	0.6930365708397678	1.3613472630778756	0.2785812408825575	0.7210417907060234	1.3731450421369176	0.19840938832635568	0.9702398503884259	1.3797289104557038	0.0972842416450402	0.7093006368344952	0.46124563602553836	0.07291459506501426	0.7802986687315987	0.8916010793093988	0.04875667909086335	0.8458265193342808	1.2843905106408688	0.07154656510938318	0.6789141648975261	1.338103503466296	0.00771755453064369	0.7134915655070913	1.3404903489663356	0.059059176497172544	0.9065555540796673	1.3602219174184256	0.2593513197923247	0.5555484539087011	-0.008933095579273303	0.3009468969976329	0.4295466121688543	-0.24846990321501236	0.281375114790672	0.3895194526076711	-0.11029013165868724	0.42192084492963355	0.5699852366521545	0.08037229983982974	0.42353019964499283	0.6782109355947645	0.32068680861407883	0.35980820773636796	0.6265176751141913	0.5717947003105833	0.2687115660263396	0.6336021852565163	0.6998689249353339	0.30098860359197754	0.615857307334613	0.708422192424474	0.35352857059967346	0.6459778754570925	0.7083013867722188	0.08513373052991503	0.6037838928802369	0.04376400193720063	0.03850176283386968	0.6184295962384281	0.3032233100318371	0.045233510838637296	0.6309751361154265	0.549325716118788	0.07837628601576081	0.6807062605273739	0.6656473311895055	0.043100174883992426	0.6852903843601834	0.70619092188253	0.014394347056712312	0.64992200707339	0.6674181028168574
551	11.72340425531915	0.30976159810102977	0.7157225444058949	0.4812902324728162	0.27130000692420403	0.7991593194169978	0.924537536151391	0.21795051835904164	0.9177427316373821	1.3424497041335608	0.22264068534718692	0.6930087699503856	1.3613740277331452	0.2788347537282176	0.7207721322795838	1.3729916144223817	0.19830359879566611	0.9699142607009388	1.3795392101855475	0.09853131063542447	0.7098630097613087	0.46119211941484206	0.07294316669173963	0.780159759752201	0.8915770106114961	0.04910644260392403	0.8460569771443147	1.2844151904090166	0.0714811509300018	0.6830873777381645	1.3398783800925969	0.007303871498276298	0.714014271190129	1.3404316459198502	0.05807863863946068	0.9046691835759537	1.3598341467335158	0.2593474596034184	0.5556329283685078	-0.008790732980773935	0.29981213369948434	0.42886822216111165	-0.24861323655370993	0.27915415518447984	0.3936065472353371	-0.11114964862503714	0.4219844212373895	0.5699508120135907	0.08063501005807219	0.4234927813424517	0.678782804955428	0.32086382238984823	0.35965358396986136	0.6259054568736581	0.5719679850319944	0.2771572628386895	0.6143414429041196	0.695336026423338	0.3066136766333327	0.6026950710088554	0.7052712837567197	0.3536111228401058	0.6454284329988771	0.7083105916871228	0.08376528037594579	0.6076664137227602	0.04147963762243516	0.038460879598786774	0.6186277164163527	0.30357874013997926	0.04468234543176096	0.6251053138687215	0.5483616310316246	0.08486374774470798	0.6607946088779375	0.6597770140581498	0.04628539575651405	0.6715383120035576	0.7024385690046765	0.017847232918011394	0.6410259005699682	0.6645080720494082
552	11.74468085106383	0.30979191838457876	0.715531330988305	0.4810216629612155	0.27104775278903687	0.8029374637088543	0.9256747895049791	0.2176326979415139	0.9186355076558986	1.342820990167481	0.22265320211475584	0.6930016387220066	1.36143237715183	0.2789744197981201	0.7209609618629331	1.3730585073206536	0.1982543223560085	0.9699243002552665	1.3793082616112309	0.10026374844175977	0.7104124616312903	0.46160865507722254	0.07294492931500746	0.7800515427218584	0.8915764089211691	0.04900442070722821	0.8464488807544139	1.2844861173038287	0.071799031106107	0.6841177393873814	1.3401916127125904	0.007161124044020214	0.7142612847671116	1.3403724925751515	0.05728035113873732	0.9025773686660568	1.3566353726690368	0.25931748038557123	0.5556075266508773	-0.008952747236036623	0.2981496791870867	0.4285995686775444	-0.2485231586235045	0.2786752740336714	0.3960396035911258	-0.11250715204834917	0.42215426526690003	0.5698682910729889	0.08070322806101536	0.4234314523596168	0.6798696290074111	0.3210369946451443	0.35975384683163336	0.6264634970410385	0.571876872024875	0.2865017110014414	0.5926071380566342	0.689272922442806	0.31086570698622334	0.5916080751473698	0.7032652616178714	0.3535761359443743	0.6456049325661857	0.7083841609857134	0.08164970424459313	0.6134306205105233	0.04042155410518869	0.03844196533875621	0.6188720192582369	0.3027914799106328	0.04417882815560853	0.6207976063081108	0.5456944536125746	0.09125134575595858	0.6385253809873919	0.6531999986759682	0.05173909796904115	0.6502135819639523	0.6953035565543135	0.019161750142992116	0.6343725586318734	0.6605318735493793
553	11.76595744680851	0.3097284380126926	0.7150430884167258	0.47983570194740316	0.2706251028632962	0.8023932291011044	0.9237826846484138	0.21765337041601474	0.9189054335101823	1.3429309049105873	0.2226577110952752	0.6930359114086184	1.3614843942131722	0.2790531424601629	0.7211869735954168	1.373132337053947	0.19831472062357458	0.9704169314864084	1.3793700242081646	0.10134177995899277	0.7105268265595233	0.46171208595896385	0.07287159543898981	0.7800331702957455	0.8915932451108978	0.047984184783340135	0.8467343408403923	1.2845517886211373	0.0731696771771791	0.684152680336944	1.340123676279195	0.0071585547762212445	0.7142590032270955	1.3404142686745528	0.05680379142581268	0.902401343721136	1.3523241711500362	0.25922353283662525	0.5552774354019449	-0.010203049892888848	0.29785753896781947	0.43201436082121303	-0.24873474565195908	0.27908070311881006	0.3968235543784913	-0.11478741460133478	0.4219915488045513	0.5700429515881226	0.07935493434018528	0.4234295751418852	0.6787101726080292	0.320796711004552	0.359698740665819	0.6269122590354126	0.5717563547193806	0.29292171564882774	0.5753856678924836	0.6844925545533378	0.31389516325894906	0.5831839868623477	0.7026428810364187	0.3538941537675329	0.6461855505643472	0.7084396889834655	0.08022371762275649	0.6172042106920408	0.04021127147376581	0.03844639319218174	0.6192763717550258	0.30092366621902567	0.04415395887321552	0.6196121299915738	0.5431397142636541	0.09584151912175246	0.6219071159930797	0.6490949354543291	0.05882571693982186	0.6250073346322218	0.6858021838253433	0.021630223741805007	0.6279947684733288	0.6583743840599511
554	11.787234042553193	0.30959370389553914	0.7144227164782423	0.4780810129545112	0.2694433020449956	0.8008611712284965	0.921577433467771	0.21788858592337762	0.9189139415923637	1.342946511138642	0.22263105663928728	0.6931117166032634	1.3615052486011625	0.27905663683183957	0.7212146930967637	1.3730963023141292	0.1984540260238964	0.9710977224805569	1.3797701947828196	0.10144423070326257	0.7105184417015175	0.4607742634888338	0.07275123668849504	0.7800357342765374	0.8915551373600021	0.04692084194442264	0.8468557725635313	1.2846015842923284	0.07516623189412013	0.6845453923731786	1.3402739495642764	0.0071645528601698765	0.7144178499526055	1.3405981568326437	0.05660064539491546	0.9047571506944121	1.350865024003931	0.25907922975117986	0.55482313283366	-0.012713614128426011	0.29918227598603075	0.4398702063233113	-0.2496176278056555	0.27997202133101184	0.3985981679171061	-0.11913635336747389	0.42088673137896965	0.5708236500285646	0.07592899375668496	0.4235336218179233	0.6712088394473389	0.3195831771453615	0.35989130944835596	0.6257333744588797	0.5717977799442472	0.29661773494405463	0.5651779532191493	0.6825160372213962	0.3161920343035945	0.5787121573677048	0.7023790545255615	0.3550236275287147	0.6460847890055648	0.7084198741323944	0.08001619307542968	0.6175694614335816	0.03795219843630327	0.03844800952275696	0.6196178829300664	0.2995129645594264	0.04414177136568358	0.6203636569274216	0.542282316946836	0.09865636193721569	0.6120700611940236	0.6468760936324776	0.06595752428010207	0.5989888943585904	0.6747324451096024	0.024689891773322353	0.6223783590502949	0.6582943870285605
555	11.808510638297872	0.3095073410247394	0.7140323573987302	0.476883826417545	0.26779703355121637	0.8001303547211105	0.9209854852556163	0.21769939292812135	0.9186503476086374	1.3428624340847413	0.22257597224594036	0.6931822251498624	1.3615150050162859	0.27900940035555916	0.7211272024004131	1.3729994137360872	0.19829976356252585	0.9703106718393085	1.379629203193407	0.10121174173078393	0.7106299522856716	0.4586118040976712	0.0726539579479572	0.7800146281886007	0.8914226056400365	0.04659934203523305	0.8469788772480079	1.2846679634779206	0.07645291429659574	0.6850056213213795	1.3404935261387751	0.007146092871720126	0.7149277936819175	1.3408050274456897	0.05705876329944948	0.9078227932885583	1.3523556320810803	0.2589983725391468	0.5546036012930354	-0.015738006825970374	0.29989627283587383	0.44874673334651916	-0.2512579965277728	0.2813643111206727	0.4024168669731556	-0.12574863203560094	0.419325026760411	0.5716035853660855	0.071967012273744	0.423738140088454	0.6582013614978822	0.31795314814858855	0.36107113767858434	0.621175571208149	0.5719887585640107	0.3005844503123479	0.5589364749704403	0.682856666186215	0.31756639484420834	0.5754983486532363	0.7013200856744091	0.35659963515586	0.6441076146380902	0.7085025351951895	0.08028339916991799	0.6165309696126746	0.03359696447591125	0.0384400813102555	0.6196157940203499	0.29893027473188366	0.0440913917075878	0.6214640923165581	0.5419564050007907	0.10037376071383557	0.6063543114615302	0.6441246422810576	0.07140652753051313	0.5786583836315506	0.6649070914370006	0.026257517898657285	0.6193371938378589	0.658306013435041
556	11.829787234042554	0.3095073508265769	0.7139381181570279	0.4766360588022033	0.266789742420123	0.7997522913065978	0.9221349846644806	0.21637212767497513	0.9177745629337545	1.3424984633422419	0.2225352085288296	0.693191706828098	1.361517684733627	0.27901198128607657	0.7210450514624198	1.3729364093294054	0.1973682204347379	0.9659145750929029	1.37783806688457	0.10112799041311904	0.7104862863610637	0.456398814852752	0.07258779185993688	0.7799643209180812	0.8915233218412058	0.046724462643341735	0.8471077012519364	1.2847535402683303	0.07666434944487732	0.6851806553838486	1.3405835249614728	0.007127433750574879	0.7152985929821772	1.3408458904838136	0.0580851357517529	0.9094491859632456	1.352640266206962	0.25912727285179943	0.5544382528442204	-0.018849738037117342	0.2977954685513554	0.45645051586279445	-0.25326804482989507	0.2829864999560837	0.40693830664478553	-0.1333461829437795	0.41860487076707026	0.571528380109823	0.06969200737550463	0.4243319176099487	0.6455721193777086	0.3176487101608232	0.3629467897486452	0.6146941676575984	0.5721279485368658	0.3050445031586246	0.5539067029160485	0.6838215462073634	0.31807793310127547	0.5702673390065979	0.6999780885562072	0.3581675630387593	0.640238470317217	0.7090028462080684	0.08042239105127333	0.6159349898656536	0.03049116945881232	0.038454731244070034	0.6195116461418073	0.29795228372799815	0.04453859171190884	0.6198202102985216	0.5404376973284384	0.1015729108862556	0.6049332755534415	0.641442733037507	0.07499847638455434	0.5683112428840471	0.6598621289586137	0.026365899343624603	0.61908646074242	0.6583361206425098
